<svg data-v-0dd9719b="" version="1.0" xmlns="http://www.w3.org/2000/svg" xmlns:xlink="http://www.w3.org/1999/xlink" width="100%" height="100%" viewBox="0 0 340.000000 250.000000" preserveAspectRatio="xMidYMid meet" color-interpolation-filters="sRGB" style="margin: auto;">  <g data-v-0dd9719b="" fill="#e16df5" class="icon-text-wrapper icon-svg-group iconsvg" transform="translate(54.965003967285156,93.39310455322266)"><g class="iconsvg-imagesvg" transform="translate(0,0)" mask="url(#8c334333-485b-47ec-955c-d77443579f98)"><g><rect fill="#e16df5" fill-opacity="0" stroke-width="2" x="0" y="0" width="60" height="63.213789034514726" class="image-rect"></rect> <svg x="0" y="0" width="60" height="63.213789034514726" filtersec="colorsb2811608613" class="image-svg-svg primary" style="overflow: visible;"><svg xmlns="http://www.w3.org/2000/svg" viewBox="0.006116670090705156 0.006116670090705156 94.90999603271484 99.99388885498047"><defs><linearGradient id="a7e7d890f-267e-4348-886f-350f594f2f58" x1="34.93" y1="68.73" x2="94.92" y2="68.73" gradientUnits="userSpaceOnUse"><stop offset="0" stop-color="#1eedc4"></stop><stop offset="1" stop-color="#1e9eed"></stop></linearGradient><linearGradient id="b121486f6-a521-4e2f-a3d9-5c8b534b652c" x1="16.82" y1="45.25" x2="48.77" y2="87.85" gradientUnits="userSpaceOnUse"><stop offset="0" stop-color="#1e9eed"></stop><stop offset="1" stop-color="#090380"></stop></linearGradient><linearGradient id="c756f81bd-29d5-43c6-aa8f-f84e21dfecfc" x1="50.23" y1="22.05" x2="102.44" y2="79.48" gradientUnits="userSpaceOnUse"><stop offset="0" stop-color="#1e9eed"></stop><stop offset="1" stop-color="#090380"></stop></linearGradient><linearGradient id="df3ba3f6f-c034-4b05-9a0f-7c63ac093bf8" x1="38.39" y1="22.98" x2="18.96" y2="53.89" gradientUnits="userSpaceOnUse"><stop offset="0" stop-color="#1eedc4"></stop><stop offset="1" stop-color="#1e9eed"></stop></linearGradient></defs><g><g><path d="M47.46 100a12.53 12.53 0 0 1-12.53-12.53c0-13 5.39-25.52 15.17-35.34 9.28-9.32 21.05-14.66 32.28-14.66a12.53 12.53 0 1 1 0 25.06C73.54 62.53 60 73.7 60 87.47A12.53 12.53 0 0 1 47.46 100z" opacity=".8" fill="url(#a7e7d890f-267e-4348-886f-350f594f2f58)"></path><path d="M47.46 100a12.53 12.53 0 0 1-12.53-12.53c0-13.77-13.56-24.94-22.4-24.94a12.53 12.53 0 0 1 0-25.06c11.24 0 23 5.34 32.28 14.66C54.6 62 60 74.5 60 87.47A12.53 12.53 0 0 1 47.46 100z" opacity=".8" fill="url(#b121486f6-a521-4e2f-a3d9-5c8b534b652c)"></path><path d="M82.38 62.53c-11.23 0-23-5.34-32.28-14.66-9.78-9.82-15.17-22.37-15.17-35.34a12.53 12.53 0 0 1 25.06 0C60 26.3 73.54 37.47 82.38 37.47a12.53 12.53 0 1 1 0 25.06z" opacity=".8" fill="url(#c756f81bd-29d5-43c6-aa8f-f84e21dfecfc)"></path><path d="M12.53 62.53a12.53 12.53 0 0 1 0-25.06c8.84 0 22.4-11.17 22.4-24.94a12.53 12.53 0 0 1 25.06 0c0 13-5.39 25.52-15.18 35.34-9.27 9.32-21.04 14.66-32.28 14.66z" opacity=".8" fill="url(#df3ba3f6f-c034-4b05-9a0f-7c63ac093bf8)"></path></g></g></svg></svg> <!----></g><rect v-gra="id" width="72" height="75.21379089355469" transform="translate(-6, -6)" style="pointer-events:none;" fill="url(#HhuznLUbRqMA2PY--YWE7)"></rect></g> <g transform="translate(67,15.011896133422852)"><g data-gra="path-name" fill-rule="" class="tp-name iconsvg-namesvg" fill="url(#0c0159f7-34ac-4a99-bf7b-c0f4f5752af7)"><g transform="scale(1)"><g><path d="M17.69-24.1L16.82-22.4Q16.66-22.12 16.47-21.98 16.28-21.84 15.99-21.84L15.99-21.84Q15.67-21.84 15.26-22.16 14.84-22.47 14.2-22.85 13.56-23.23 12.66-23.55 11.76-23.86 10.49-23.86L10.49-23.86Q9.28-23.86 8.36-23.54 7.43-23.21 6.81-22.66 6.19-22.1 5.87-21.35 5.56-20.6 5.56-19.73L5.56-19.73Q5.56-18.62 6.1-17.89 6.65-17.16 7.55-16.64 8.45-16.12 9.59-15.74 10.73-15.36 11.92-14.95 13.12-14.54 14.26-14.03 15.4-13.52 16.29-12.75 17.19-11.97 17.74-10.84 18.29-9.71 18.29-8.06L18.29-8.06Q18.29-6.32 17.69-4.79 17.1-3.26 15.96-2.13 14.82-1 13.16-0.35 11.5 0.3 9.39 0.3L9.39 0.3Q6.82 0.3 4.7-0.64 2.58-1.57 1.07-3.17L1.07-3.17 2.11-4.87Q2.26-5.08 2.47-5.22 2.69-5.35 2.95-5.35L2.95-5.35Q3.33-5.35 3.83-4.94 4.34-4.52 5.09-4.02 5.84-3.52 6.9-3.1 7.97-2.69 9.5-2.69L9.5-2.69Q10.78-2.69 11.78-3.04 12.78-3.39 13.48-4.03 14.17-4.67 14.54-5.56 14.91-6.45 14.91-7.54L14.91-7.54Q14.91-8.74 14.37-9.51 13.82-10.28 12.93-10.8 12.04-11.32 10.9-11.68 9.76-12.04 8.57-12.42 7.37-12.8 6.23-13.3 5.09-13.8 4.21-14.6 3.32-15.4 2.77-16.59 2.22-17.79 2.22-19.55L2.22-19.55Q2.22-20.95 2.77-22.27 3.32-23.58 4.35-24.6 5.39-25.62 6.92-26.23 8.45-26.84 10.43-26.84L10.43-26.84Q12.65-26.84 14.49-26.14 16.32-25.44 17.69-24.1L17.69-24.1ZM25.64 6.35L22.34 6.35 22.34-18.77 24.31-18.77Q25.01-18.77 25.2-18.08L25.2-18.08 25.47-15.86Q26.68-17.32 28.22-18.21 29.77-19.1 31.79-19.1L31.79-19.1Q33.4-19.1 34.72-18.48 36.03-17.86 36.96-16.65 37.89-15.43 38.39-13.64 38.89-11.84 38.89-9.5L38.89-9.5Q38.89-7.43 38.33-5.64 37.77-3.85 36.74-2.55 35.7-1.24 34.19-0.49 32.68 0.26 30.79 0.26L30.79 0.26Q29.05 0.26 27.82-0.31 26.59-0.89 25.64-1.95L25.64-1.95 25.64 6.35ZM30.7-16.43L30.7-16.43Q29.09-16.43 27.87-15.69 26.66-14.95 25.64-13.6L25.64-13.6 25.64-4.52Q26.55-3.3 27.63-2.8 28.72-2.3 30.05-2.3L30.05-2.3Q32.66-2.3 34.07-4.17 35.48-6.04 35.48-9.5L35.48-9.5Q35.48-11.34 35.15-12.65 34.83-13.97 34.22-14.81 33.61-15.65 32.72-16.04 31.83-16.43 30.7-16.43ZM56.58-12L56.58 0 55.12 0Q54.63 0 54.34-0.15 54.04-0.3 53.95-0.78L53.95-0.78 53.58-2.52Q52.84-1.85 52.13-1.32 51.43-0.8 50.65-0.44 49.87-0.07 48.99 0.11 48.11 0.3 47.04 0.3L47.04 0.3Q45.94 0.3 44.99-0.01 44.04-0.31 43.33-0.93 42.63-1.54 42.21-2.47 41.79-3.41 41.79-4.69L41.79-4.69Q41.79-5.8 42.41-6.83 43.02-7.86 44.38-8.65 45.74-9.45 47.95-9.96 50.15-10.47 53.34-10.54L53.34-10.54 53.34-12Q53.34-14.19 52.4-15.31 51.47-16.43 49.63-16.43L49.63-16.43Q48.43-16.43 47.6-16.13 46.78-15.82 46.18-15.44 45.57-15.06 45.14-14.76 44.7-14.45 44.28-14.45L44.28-14.45Q43.94-14.45 43.69-14.63 43.44-14.8 43.3-15.06L43.3-15.06 42.7-16.12Q44.26-17.62 46.06-18.36 47.85-19.1 50.04-19.1L50.04-19.1Q51.61-19.1 52.84-18.58 54.06-18.06 54.89-17.14 55.73-16.21 56.15-14.9 56.58-13.58 56.58-12L56.58-12ZM48.02-2.02L48.02-2.02Q48.89-2.02 49.61-2.2 50.34-2.37 50.97-2.7 51.61-3.02 52.2-3.48 52.78-3.95 53.34-4.54L53.34-4.54 53.34-8.45Q51.06-8.37 49.46-8.09 47.87-7.8 46.87-7.34 45.87-6.87 45.42-6.24 44.96-5.61 44.96-4.84L44.96-4.84Q44.96-4.09 45.2-3.56 45.44-3.02 45.85-2.68 46.26-2.33 46.82-2.18 47.37-2.02 48.02-2.02ZM75.25-16.62L74.38-15.43Q74.23-15.23 74.09-15.12 73.94-15.01 73.66-15.01L73.66-15.01Q73.38-15.01 73.06-15.24 72.73-15.47 72.23-15.75 71.73-16.03 71.02-16.26 70.31-16.49 69.27-16.49L69.27-16.49Q67.9-16.49 66.84-16 65.79-15.51 65.07-14.58 64.36-13.65 64-12.34 63.64-11.02 63.64-9.39L63.64-9.39Q63.64-7.69 64.03-6.36 64.42-5.04 65.12-4.14 65.82-3.24 66.83-2.77 67.84-2.3 69.1-2.3L69.1-2.3Q70.31-2.3 71.08-2.58 71.86-2.87 72.38-3.22 72.9-3.58 73.23-3.86 73.57-4.15 73.9-4.15L73.9-4.15Q74.33-4.15 74.53-3.83L74.53-3.83 75.46-2.63Q74.23-1.13 72.4-0.44 70.57 0.26 68.53 0.26L68.53 0.26Q66.77 0.26 65.26-0.39 63.75-1.04 62.64-2.27 61.53-3.5 60.89-5.3 60.25-7.1 60.25-9.39L60.25-9.39Q60.25-11.49 60.83-13.26 61.41-15.04 62.53-16.33 63.66-17.62 65.3-18.34 66.95-19.06 69.08-19.06L69.08-19.06Q71.05-19.06 72.57-18.42 74.09-17.79 75.25-16.62L75.25-16.62ZM86.31-19.06L86.31-19.06Q88-19.06 89.43-18.5 90.85-17.93 91.89-16.87 92.93-15.8 93.51-14.24 94.09-12.67 94.09-10.67L94.09-10.67Q94.09-9.89 93.93-9.63 93.76-9.37 93.3-9.37L93.3-9.37 80.81-9.37Q80.85-7.6 81.29-6.28 81.74-4.97 82.52-4.09 83.29-3.21 84.37-2.77 85.44-2.33 86.78-2.33L86.78-2.33Q88.02-2.33 88.92-2.62 89.81-2.91 90.46-3.24 91.11-3.58 91.55-3.86 91.98-4.15 92.3-4.15L92.3-4.15Q92.7-4.15 92.93-3.83L92.93-3.83 93.85-2.63Q93.24-1.89 92.39-1.34 91.54-0.8 90.57-0.44 89.59-0.09 88.55 0.08 87.52 0.26 86.5 0.26L86.5 0.26Q84.55 0.26 82.91-0.4 81.27-1.06 80.08-2.33 78.88-3.59 78.22-5.47 77.55-7.34 77.55-9.76L77.55-9.76Q77.55-11.73 78.15-13.43 78.75-15.14 79.88-16.39 81.01-17.64 82.65-18.35 84.28-19.06 86.31-19.06ZM86.39-16.64L86.39-16.64Q84-16.64 82.63-15.26 81.26-13.88 80.92-11.43L80.92-11.43 91.13-11.43Q91.13-12.58 90.82-13.53 90.5-14.49 89.89-15.18 89.28-15.88 88.4-16.26 87.52-16.64 86.39-16.64ZM97.45-9.71L97.45-12.51 106.6-12.51 106.6-9.71 97.45-9.71ZM121.94-26.55L132.55 0 129.78 0Q129.29 0 129-0.24 128.7-0.48 128.55-0.85L128.55-0.85 126.07-7.26 114.16-7.26 111.68-0.85Q111.55-0.52 111.23-0.26 110.92 0 110.45 0L110.45 0 107.67 0 118.29-26.55 121.94-26.55ZM119.33-20.64L115.16-9.86 125.07-9.86 120.9-20.66Q120.49-21.66 120.1-23.16L120.1-23.16Q119.9-22.4 119.71-21.76 119.51-21.12 119.33-20.64L119.33-20.64ZM145.3 0L135.91 0 135.91-26.55 144.37-26.55Q146.82-26.55 148.59-26.07 150.36-25.58 151.5-24.7 152.64-23.81 153.18-22.52 153.73-21.23 153.73-19.62L153.73-19.62Q153.73-18.64 153.42-17.73 153.12-16.82 152.5-16.04 151.88-15.27 150.94-14.65 150.01-14.04 148.75-13.65L148.75-13.65Q151.66-13.08 153.14-11.56 154.62-10.04 154.62-7.56L154.62-7.56Q154.62-5.87 154-4.48 153.38-3.09 152.18-2.09 150.99-1.09 149.26-0.55 147.52 0 145.3 0L145.3 0ZM145.23-12.1L139.5-12.1 139.5-2.85 145.24-2.85Q146.78-2.85 147.88-3.21 148.99-3.56 149.7-4.2 150.41-4.84 150.75-5.72 151.08-6.6 151.08-7.65L151.08-7.65Q151.08-9.71 149.63-10.9 148.17-12.1 145.23-12.1L145.23-12.1ZM139.5-23.71L139.5-14.65 144.24-14.65Q145.76-14.65 146.88-14.99 147.99-15.32 148.72-15.91 149.45-16.51 149.8-17.35 150.15-18.19 150.15-19.19L150.15-19.19Q150.15-21.53 148.75-22.62 147.34-23.71 144.37-23.71L144.37-23.71 139.5-23.71ZM164.14-26.55L164.14 0 160.55 0 160.55-26.55 164.14-26.55Z" transform="translate(-1.0700000524520874, 26.84000015258789)"></path></g> <!----> <!----> <!----> <!----> <!----> <!----> <!----></g></g> <!----></g></g><defs v-gra="od"><linearGradient x1="0" y1="1" x2="0" y2="0" id="0c0159f7-34ac-4a99-bf7b-c0f4f5752af7"><stop offset="0%" stop-color="#e16df5"></stop><stop offset="100%" stop-color="#4ef8e7"></stop></linearGradient><filter id="42443b3f1de60f6b6fd3b6a9844b4764" filterUnits="objectBoundingBox"><feColorMatrix type="matrix" values="0 0 0 0 0.99609375  0 0 0 0 0.99609375  0 0 0 0 0.99609375  0 0 0 1 0"></feColorMatrix></filter></defs><defs v-gra="id"><filter id="1d7f3350-89e7-4c90-a97c-0c1b94f13fb2" filterUnits="userSpaceOnUse"><feColorMatrix type="matrix" values="0 0 0 0 0.99609375  0 0 0 0 0.99609375  0 0 0 0 0.99609375  0 0 0 1 0"></feColorMatrix></filter><linearGradient x1="0" y1="1" x2="0" y2="0" id="HhuznLUbRqMA2PY--YWE7"><stop offset="0%" stop-color="#e16df5"></stop><stop offset="100%" stop-color="#4ef8e7"></stop></linearGradient><filter id="42443b3f1de60f6b6fd3b6a9844b4764" filterUnits="objectBoundingBox"><feColorMatrix type="matrix" values="0 0 0 0 0.99609375  0 0 0 0 0.99609375  0 0 0 0 0.99609375  0 0 0 1 0"></feColorMatrix></filter></defs><mask v-gra="im" id="8c334333-485b-47ec-955c-d77443579f98"><g class="iconsvg-imagesvg" filter="url(#1d7f3350-89e7-4c90-a97c-0c1b94f13fb2)"><g><rect fill="#e16df5" fill-opacity="0" stroke-width="2" x="0" y="0" width="60" height="63.213789034514726" class="image-rect"></rect> <svg x="0" y="0" width="60" height="63.213789034514726" filtersec="colorsb2811608613" class="image-svg-svg primary" style="overflow: visible;"><svg xmlns="http://www.w3.org/2000/svg" viewBox="0.006116670090705156 0.006116670090705156 94.90999603271484 99.99388885498047"><defs><linearGradient id="a7e7d890f-267e-4348-886f-350f594f2f58" x1="34.93" y1="68.73" x2="94.92" y2="68.73" gradientUnits="userSpaceOnUse"><stop offset="0" stop-color="#1eedc4"></stop><stop offset="1" stop-color="#1e9eed"></stop></linearGradient><linearGradient id="b121486f6-a521-4e2f-a3d9-5c8b534b652c" x1="16.82" y1="45.25" x2="48.77" y2="87.85" gradientUnits="userSpaceOnUse"><stop offset="0" stop-color="#1e9eed"></stop><stop offset="1" stop-color="#090380"></stop></linearGradient><linearGradient id="c756f81bd-29d5-43c6-aa8f-f84e21dfecfc" x1="50.23" y1="22.05" x2="102.44" y2="79.48" gradientUnits="userSpaceOnUse"><stop offset="0" stop-color="#1e9eed"></stop><stop offset="1" stop-color="#090380"></stop></linearGradient><linearGradient id="df3ba3f6f-c034-4b05-9a0f-7c63ac093bf8" x1="38.39" y1="22.98" x2="18.96" y2="53.89" gradientUnits="userSpaceOnUse"><stop offset="0" stop-color="#1eedc4"></stop><stop offset="1" stop-color="#1e9eed"></stop></linearGradient></defs><g><g><path d="M47.46 100a12.53 12.53 0 0 1-12.53-12.53c0-13 5.39-25.52 15.17-35.34 9.28-9.32 21.05-14.66 32.28-14.66a12.53 12.53 0 1 1 0 25.06C73.54 62.53 60 73.7 60 87.47A12.53 12.53 0 0 1 47.46 100z" opacity=".8" fill="url(#a7e7d890f-267e-4348-886f-350f594f2f58)"></path><path d="M47.46 100a12.53 12.53 0 0 1-12.53-12.53c0-13.77-13.56-24.94-22.4-24.94a12.53 12.53 0 0 1 0-25.06c11.24 0 23 5.34 32.28 14.66C54.6 62 60 74.5 60 87.47A12.53 12.53 0 0 1 47.46 100z" opacity=".8" fill="url(#b121486f6-a521-4e2f-a3d9-5c8b534b652c)"></path><path d="M82.38 62.53c-11.23 0-23-5.34-32.28-14.66-9.78-9.82-15.17-22.37-15.17-35.34a12.53 12.53 0 0 1 25.06 0C60 26.3 73.54 37.47 82.38 37.47a12.53 12.53 0 1 1 0 25.06z" opacity=".8" fill="url(#c756f81bd-29d5-43c6-aa8f-f84e21dfecfc)"></path><path d="M12.53 62.53a12.53 12.53 0 0 1 0-25.06c8.84 0 22.4-11.17 22.4-24.94a12.53 12.53 0 0 1 25.06 0c0 13-5.39 25.52-15.18 35.34-9.27 9.32-21.04 14.66-32.28 14.66z" opacity=".8" fill="url(#df3ba3f6f-c034-4b05-9a0f-7c63ac093bf8)"></path></g></g></svg></svg> <!----></g></g></mask></svg>